<?xml version="1.0" standalone="no"?>
<!DOCTYPE svg PUBLIC "-//W3C//DTD SVG 20010904//EN"
 "http://www.w3.org/TR/2001/REC-SVG-20010904/DTD/svg10.dtd">
<svg version="1.0" xmlns="http://www.w3.org/2000/svg"
 width="1600.000000pt" height="696.000000pt" viewBox="0 0 1600.000000 696.000000"
 preserveAspectRatio="xMidYMid meet">

<g transform="translate(0.000000,696.000000) scale(0.100000,-0.100000)"
fill="#000000" stroke="none">
<path d="M0 3480 l0 -3480 8000 0 8000 0 0 3480 0 3480 -8000 0 -8000 0 0
-3480z m9925 3270 c3 -5 2 -10 -4 -10 -5 0 -13 5 -16 10 -3 6 -2 10 4 10 5 0
13 -4 16 -10z m-3635 -409 c0 -12 -20 -25 -27 -18 -7 7 6 27 18 27 5 0 9 -4 9
-9z m231 -386 c7 -25 19 -45 27 -45 7 0 12 -6 10 -12 -2 -14 6 -33 93 -213 52
-108 75 -160 120 -262 8 -18 17 -33 21 -33 5 0 8 -10 8 -22 0 -13 9 -34 20
-48 11 -14 20 -29 20 -33 0 -4 16 -43 36 -85 59 -127 91 -195 109 -237 10 -22
33 -74 53 -115 19 -41 48 -104 64 -140 108 -236 179 -383 192 -396 9 -8 12 45
12 205 1 204 9 551 19 866 3 77 7 232 10 346 3 113 9 217 13 231 7 26 13 21
169 -130 89 -86 235 -227 323 -312 88 -85 207 -199 263 -254 56 -54 213 -208
350 -342 139 -138 255 -244 265 -244 10 0 27 10 38 23 11 12 76 74 144 137 69
63 152 140 185 171 58 55 153 142 207 191 209 190 326 297 507 467 335 315
334 314 349 294 9 -13 11 -89 7 -338 -2 -176 -7 -525 -10 -775 -8 -624 -14
-923 -19 -927 -2 -3 -19 3 -38 13 -89 47 -261 51 -360 10 -29 -12 -39 -13 -45
-3 -4 6 -8 208 -9 447 -2 489 -1 460 -11 460 -8 0 -72 -59 -218 -199 -44 -42
-145 -137 -225 -210 -80 -74 -211 -197 -292 -273 -183 -174 -193 -181 -221
-174 -12 3 -105 87 -207 186 -101 99 -190 180 -197 180 -7 0 -13 4 -13 9 0 6
-83 94 -184 196 -101 103 -209 214 -240 247 -31 34 -59 58 -62 55 -7 -7 -13
-318 -18 -1030 -3 -330 -8 -602 -11 -605 -7 -7 -480 -10 -526 -4 -31 4 -35 13
-139 247 -5 11 -25 55 -45 98 -19 43 -35 83 -35 88 0 5 -4 9 -9 9 -5 0 -11 12
-14 28 -3 15 -22 61 -41 103 -20 42 -36 82 -36 88 0 15 -42 95 -52 99 -5 2 -8
10 -8 18 0 8 -4 22 -9 32 -21 40 -69 150 -80 184 -7 21 -17 40 -22 43 -5 4 -9
14 -9 23 0 10 -13 44 -30 77 -16 33 -30 67 -30 75 0 8 -9 26 -20 40 -11 14
-20 37 -20 51 0 15 -6 29 -14 32 -7 3 -16 20 -20 39 -8 41 -29 88 -38 88 -5 0
-8 4 -8 10 0 5 -23 68 -51 140 -42 106 -54 128 -65 119 -8 -6 -14 -19 -14 -29
0 -10 -6 -23 -14 -29 -8 -6 -19 -26 -26 -44 -12 -30 -38 -88 -117 -257 -19
-41 -38 -84 -43 -95 -4 -11 -26 -58 -48 -105 -40 -86 -74 -162 -86 -190 -3 -8
-10 -22 -15 -30 -5 -8 -21 -44 -37 -80 -15 -36 -35 -76 -45 -89 -11 -13 -19
-31 -19 -40 0 -9 -7 -25 -15 -35 -8 -11 -15 -30 -15 -41 0 -12 -9 -30 -20 -40
-11 -10 -20 -26 -20 -37 0 -10 -4 -18 -10 -18 -5 0 -10 -9 -10 -19 0 -11 -20
-58 -44 -105 -40 -78 -43 -87 -27 -95 9 -5 171 -11 359 -13 291 -3 344 -5 353
-18 5 -9 8 -77 7 -160 l-3 -145 -60 -6 c-68 -6 -708 -2 -984 7 -101 3 -247 7
-325 9 -166 4 -156 3 -156 14 0 12 53 120 101 206 21 39 50 94 64 124 14 30
31 61 38 69 6 8 19 31 27 51 8 20 35 72 60 116 25 44 44 83 42 88 -1 4 3 7 9
7 5 0 17 16 25 36 14 34 157 304 195 369 10 17 38 71 64 120 25 50 65 126 89
170 59 109 96 176 143 265 22 41 52 95 66 120 39 70 252 462 320 590 33 63 67
121 74 128 7 7 13 21 13 31 0 9 4 21 9 27 9 9 33 51 76 130 28 53 58 93 66 88
4 -2 13 -24 20 -49z m6579 -1717 c0 -7 5 -6 14 1 17 14 126 12 126 -3 0 -6 5
-4 10 4 9 13 11 13 20 0 6 -10 10 -11 10 -2 0 12 32 17 43 6 4 -4 30 -9 59
-11 29 -2 55 -9 56 -14 2 -5 7 -7 12 -4 5 3 21 0 37 -6 15 -6 41 -12 57 -15
15 -2 33 -8 40 -13 6 -5 30 -14 54 -20 23 -7 42 -16 42 -20 0 -5 25 -20 55
-35 30 -14 55 -30 55 -36 0 -13 0 -13 -49 5 -23 8 -43 15 -46 15 -3 0 -22 8
-42 17 -21 8 -48 15 -60 15 -13 0 -23 4 -23 9 0 5 -10 8 -22 7 -13 -1 -39 4
-59 11 -20 6 -64 13 -98 14 -33 1 -61 5 -61 10 0 4 -18 6 -40 4 -22 -2 -43 0
-46 5 -3 4 -10 6 -15 3 -10 -7 -77 -14 -184 -21 -96 -6 -124 -9 -132 -17 -3
-4 -19 -7 -34 -7 -15 0 -31 -5 -34 -10 -4 -6 -15 -8 -25 -5 -10 3 -37 -1 -61
-10 -24 -8 -54 -15 -66 -15 -12 0 -25 -4 -28 -10 -3 -5 -19 -10 -35 -10 -16 0
-32 -4 -35 -10 -3 -5 -15 -10 -26 -10 -10 0 -27 -4 -37 -9 -9 -5 -35 -14 -57
-21 -22 -6 -53 -18 -70 -25 -16 -7 -59 -25 -95 -39 -101 -42 -113 -47 -152
-67 -20 -10 -44 -19 -53 -19 -9 0 -31 -11 -49 -25 -18 -14 -36 -22 -39 -19 -4
4 -22 -5 -41 -20 -19 -14 -41 -26 -49 -26 -8 0 -33 -13 -55 -30 -23 -16 -48
-30 -56 -30 -7 0 -25 -9 -40 -21 -15 -11 -33 -22 -41 -23 -8 -1 -36 -16 -62
-32 -26 -17 -62 -36 -80 -43 -17 -7 -41 -23 -54 -37 -12 -13 -30 -24 -39 -24
-10 0 -37 -15 -61 -33 -24 -19 -57 -40 -74 -49 -50 -25 -147 -85 -190 -116
-22 -16 -54 -37 -71 -45 -18 -9 -45 -27 -60 -40 -16 -14 -51 -37 -78 -52 -28
-15 -58 -35 -68 -45 -10 -9 -31 -23 -46 -31 -38 -19 -146 -92 -150 -101 -2 -5
-8 -8 -14 -8 -5 0 -28 -13 -51 -29 -76 -52 -232 -136 -302 -162 -181 -68 -310
-91 -467 -85 -115 5 -228 24 -264 45 -10 6 -44 20 -74 32 -74 28 -170 102
-240 185 -155 183 -207 463 -135 729 58 214 114 277 204 230 16 -8 31 -22 35
-30 12 -33 6 -87 -14 -112 -11 -14 -20 -34 -20 -44 0 -11 -4 -27 -9 -37 -21
-39 -51 -196 -51 -268 0 -73 24 -193 41 -204 4 -3 9 -17 11 -31 2 -15 15 -42
29 -60 14 -19 28 -42 32 -51 3 -10 11 -18 17 -18 5 0 10 -6 10 -13 0 -20 131
-113 207 -147 60 -26 204 -53 278 -52 86 2 244 23 251 33 3 5 14 9 25 9 10 0
27 4 37 9 23 13 55 25 67 26 6 0 17 5 25 10 8 5 54 28 101 52 48 23 93 48 100
55 8 7 28 20 44 28 17 8 45 25 62 38 36 26 122 80 193 120 25 14 47 30 48 34
2 4 8 8 14 8 5 0 24 11 42 25 18 14 38 25 44 25 7 0 12 5 12 10 0 6 5 10 10
10 6 0 34 15 63 33 29 18 59 36 67 40 17 8 53 30 60 37 3 3 25 16 50 29 98 52
136 74 161 92 15 10 33 19 40 19 6 0 27 11 46 26 18 14 33 22 33 19 0 -3 18 6
40 20 22 14 47 25 55 25 9 0 13 5 10 10 -3 6 2 10 13 10 11 0 30 8 43 18 29
22 101 57 112 54 4 -1 7 3 7 8 0 6 5 10 10 10 6 0 59 23 118 51 59 28 117 52
129 53 13 0 23 7 23 14 0 6 8 12 18 12 10 0 22 4 27 9 10 8 115 45 125 43 3 0
12 5 20 12 14 13 113 49 135 51 6 0 20 6 32 13 12 7 26 11 30 11 8 -2 13 -1
58 17 11 4 30 8 43 9 13 0 26 5 30 11 4 5 21 9 37 9 17 -1 39 4 50 10 21 13
126 37 141 34 5 -1 22 3 38 10 16 6 58 13 93 14 35 1 63 5 63 9 0 4 18 6 40 6
22 0 40 -5 40 -10z m740 -213 c0 -3 -9 -1 -20 5 -11 6 -18 15 -15 21 6 9 35
-12 35 -26z m-3854 -236 c8 -6 14 -8 14 -3 0 5 4 4 8 -1 4 -6 21 -17 37 -25
39 -18 96 -71 89 -82 -3 -4 -2 -8 3 -8 14 0 32 -53 35 -102 2 -27 6 -48 9 -48
12 0 -7 -64 -34 -115 -32 -61 -51 -85 -66 -85 -6 0 -11 -4 -11 -10 0 -5 -7
-10 -15 -10 -8 0 -15 -3 -15 -8 0 -10 -70 -31 -132 -38 -69 -8 -138 16 -200
68 -97 80 -123 205 -70 331 14 33 98 117 118 117 8 0 14 4 14 8 0 28 185 37
216 11z m-1436 -139 c0 -5 -4 -10 -9 -10 -6 0 -13 5 -16 10 -3 6 1 10 9 10 9
0 16 -4 16 -10z m-6706 -1276 c8 -3 26 -27 39 -52 14 -26 40 -70 58 -99 102
-157 136 -210 149 -238 6 -11 18 -32 28 -47 46 -73 92 -152 92 -159 0 -5 5 -9
10 -9 6 0 10 -7 10 -15 0 -18 -48 -27 -115 -23 -45 3 -52 6 -82 48 -18 25 -37
50 -42 56 -5 6 -12 20 -15 32 -15 45 -57 53 -289 55 -137 1 -138 0 -163 -26
-13 -14 -24 -29 -24 -31 0 -6 -26 -39 -52 -68 -10 -10 -18 -22 -18 -27 0 -11
-39 -26 -46 -18 -8 8 21 71 39 86 10 7 17 21 17 30 0 9 6 23 13 30 10 10 7 16
-12 30 -27 20 -22 25 31 35 33 6 43 16 95 94 31 48 60 89 63 92 3 3 29 42 57
87 83 132 110 155 157 137z m851 -17 c11 -2 38 -7 60 -12 78 -14 184 -92 233
-170 33 -52 43 -167 18 -219 -9 -19 -16 -38 -16 -43 0 -13 -79 -90 -110 -108
-80 -46 -131 -64 -206 -70 -143 -11 -320 -14 -335 -5 -12 8 -14 47 -11 232 3
258 9 385 18 399 6 10 294 6 349 -4z m690 3 c44 -1 109 -9 145 -17 55 -13 72
-23 111 -63 135 -138 37 -311 -178 -314 -41 -1 -73 -5 -73 -11 0 -11 64 -65
77 -65 4 0 23 -14 42 -30 18 -17 39 -30 46 -30 7 0 32 -15 56 -34 23 -19 45
-34 48 -33 4 1 21 -11 38 -27 26 -23 30 -32 22 -43 -10 -11 -17 -9 -45 12 -18
14 -35 25 -37 25 -19 0 -334 212 -344 231 -16 32 -7 36 90 38 101 2 154 8 170
20 85 67 97 83 97 128 0 57 -19 93 -67 125 -65 43 -92 49 -213 46 l-115 -3 -6
-45 c-4 -25 -8 -155 -10 -288 -2 -134 -7 -248 -10 -254 -3 -5 -31 -12 -62 -15
-93 -10 -89 -24 -82 303 7 320 8 334 23 343 6 4 53 6 104 5 51 -2 129 -3 173
-4z m550 -27 c11 -30 3 -602 -9 -622 -3 -5 -35 -9 -70 -10 -56 -1 -66 2 -71
19 -7 23 3 609 11 622 3 4 34 8 69 8 51 0 64 -3 70 -17z m596 -35 c35 -62 38
-67 109 -178 36 -56 74 -116 84 -133 11 -18 52 -85 93 -149 40 -64 73 -124 73
-133 0 -12 -14 -15 -80 -15 l-79 0 -47 73 c-78 122 -54 112 -281 115 -224 3
-206 8 -264 -80 -13 -21 -27 -38 -30 -38 -4 0 -12 -13 -19 -30 -9 -22 -19 -30
-37 -30 -22 0 -24 3 -18 27 3 14 22 50 41 78 40 61 41 71 12 79 -23 6 -23 7
-4 21 11 8 32 15 47 15 30 0 28 -3 151 185 39 61 74 112 78 115 3 3 13 16 21
30 64 101 111 115 150 48z m564 20 c15 -12 37 -31 49 -42 12 -12 48 -43 81
-71 32 -27 88 -77 124 -111 36 -33 86 -78 110 -100 57 -50 78 -69 135 -123 25
-24 49 -41 54 -37 4 4 8 114 10 244 2 130 5 238 6 240 9 8 35 -13 40 -33 10
-40 -2 -586 -13 -599 -16 -20 -119 -11 -144 11 -12 11 -67 60 -122 109 -55 50
-111 99 -125 110 -13 10 -42 37 -65 60 -66 67 -164 146 -173 140 -5 -3 -9 -81
-10 -173 -2 -218 -11 -282 -37 -247 -10 14 -12 86 -9 318 3 272 4 302 20 313
25 18 37 16 69 -9z m1178 -10 c16 -17 87 -117 87 -123 0 -8 90 -144 99 -149 5
-3 12 -17 15 -32 4 -14 15 -35 25 -45 10 -11 29 -40 41 -65 13 -24 29 -49 37
-55 7 -6 13 -16 13 -21 0 -5 11 -24 25 -42 14 -18 25 -38 25 -44 0 -7 4 -12 9
-12 5 0 11 -8 15 -17 3 -10 9 -24 12 -30 4 -10 -14 -13 -73 -13 -48 0 -85 5
-95 13 -9 6 -37 46 -63 87 -26 41 -53 78 -59 82 -6 4 -28 8 -48 8 -20 0 -40 5
-43 10 -4 6 -15 8 -26 5 -11 -4 -19 -2 -19 5 0 8 14 11 40 8 22 -2 40 0 40 4
0 5 7 8 15 8 21 0 19 14 -9 47 -12 15 -25 33 -27 38 -12 29 -102 175 -115 186
-13 11 -19 9 -34 -11 -10 -14 -17 -27 -15 -30 2 -4 -11 -24 -30 -46 -19 -21
-38 -48 -41 -59 -7 -21 -61 -95 -78 -107 -20 -13 40 -23 141 -23 92 0 103 -2
103 -18 0 -16 -11 -18 -132 -16 l-133 1 -41 -45 c-23 -25 -49 -62 -58 -81 -18
-37 -42 -56 -63 -49 -19 7 -15 31 7 45 11 7 20 17 20 21 0 5 14 28 30 52 17
24 30 46 30 48 0 3 -11 8 -24 11 -13 3 -26 13 -30 21 -4 12 3 15 34 16 22 1
43 2 48 4 26 7 38 18 39 37 1 11 11 29 22 40 12 10 30 37 41 59 19 37 38 63
68 94 6 8 12 18 12 24 0 6 5 11 10 11 6 0 10 6 10 14 0 7 6 19 13 25 8 6 24
32 38 57 28 56 67 78 92 52z m1217 -7 c27 -1 110 -68 110 -89 0 -6 6 -12 13
-12 13 0 68 -57 64 -66 -1 -3 13 -14 31 -25 17 -12 32 -25 32 -31 0 -5 5 -6
10 -3 6 3 10 -1 10 -10 0 -11 5 -15 15 -11 8 3 15 1 15 -4 0 -6 5 -10 10 -10
6 0 10 6 8 13 -3 11 52 77 65 77 6 0 70 64 102 102 11 13 27 27 35 31 8 4 23
13 33 19 15 11 20 10 31 -5 11 -13 12 -71 8 -270 -2 -138 -4 -275 -4 -303 l0
-52 -54 -7 c-29 -3 -63 -4 -74 0 -26 8 -25 6 -16 292 3 93 1 155 -5 158 -5 4
-7 11 -4 16 4 5 3 9 0 9 -6 0 -44 -34 -163 -147 -75 -72 -92 -83 -92 -63 0 6
-6 10 -13 10 -7 0 -57 45 -111 101 -61 62 -102 97 -108 91 -5 -5 -11 -109 -13
-232 -2 -122 -6 -224 -8 -227 -3 -2 -14 0 -25 6 -13 7 -18 19 -16 38 2 23 4
95 4 213 -1 238 5 376 14 386 6 6 24 10 41 9 16 -2 41 -3 55 -4z m1202 -21
c23 -5 38 -4 40 2 5 15 108 -1 108 -17 0 -10 -45 -13 -201 -13 -110 0 -204 -3
-207 -6 -3 -4 -7 -89 -9 -191 -2 -144 0 -187 10 -191 7 -2 62 -6 122 -7 61 -2
119 -6 130 -11 16 -6 17 -6 5 3 -11 9 4 11 65 9 74 -3 94 -10 95 -31 0 -5 -24
-8 -52 -7 -29 1 -57 1 -63 0 -5 -1 -14 -1 -20 0 -11 3 -247 2 -255 -1 -3 -1
-13 -1 -22 0 -10 1 -18 -1 -19 -6 -13 -113 0 -149 48 -140 13 2 23 -1 23 -7 0
-8 2 -8 8 0 5 8 39 10 112 7 58 -3 123 -5 145 -4 22 0 51 -2 65 -5 l25 -6 -30
-12 c-20 -9 -66 -11 -140 -9 -60 3 -114 4 -120 4 -60 -1 -163 -2 -217 -2 l-67
1 -6 33 c-4 19 -7 60 -8 93 l-2 59 -42 0 c-49 1 -60 8 -42 28 9 10 26 13 50
10 35 -5 36 -5 41 33 2 22 4 112 4 201 -1 90 2 163 7 163 4 0 7 7 7 15 0 12
28 14 188 13 103 0 204 -4 224 -8z m333 -12 c8 -7 39 -35 71 -63 31 -27 66
-59 78 -71 12 -12 31 -26 44 -33 12 -7 20 -16 17 -22 -4 -5 -2 -9 4 -9 5 0 31
-18 56 -40 25 -22 43 -40 38 -40 -4 0 4 -8 18 -18 15 -9 37 -27 50 -39 13 -13
35 -32 49 -44 14 -11 44 -38 67 -60 45 -42 69 -49 76 -21 2 9 3 117 3 240 l-1
223 24 -3 24 -3 -3 -225 c-3 -306 -6 -399 -12 -406 -3 -3 -30 -8 -59 -11 -49
-5 -57 -2 -94 26 -46 37 -128 110 -220 197 -36 34 -82 75 -103 90 -20 16 -61
52 -91 81 -62 61 -77 58 -79 -13 -1 -25 -5 -50 -7 -54 -3 -5 -1 -11 3 -14 5
-3 8 -17 6 -32 -1 -14 -4 -69 -5 -122 -1 -55 -7 -100 -13 -104 -7 -5 -7 -8 2
-8 17 0 15 -27 -2 -33 -8 -3 -19 0 -24 6 -11 14 -10 247 1 265 5 6 4 12 0 12
-10 0 -8 334 2 349 9 15 63 14 80 -1z m1025 -7 c30 -2 58 -7 61 -12 3 -5 14
-7 24 -3 14 6 16 4 10 -6 -5 -8 -4 -11 3 -6 12 7 142 -52 142 -65 0 -5 11 -15
25 -21 14 -6 25 -16 25 -22 0 -6 9 -17 20 -24 11 -7 20 -19 20 -27 0 -8 5 -15
11 -15 6 0 9 -7 5 -15 -3 -8 -1 -15 4 -15 10 0 10 -7 11 -93 1 -36 -5 -66 -15
-81 -9 -14 -11 -26 -6 -28 6 -2 -12 -26 -40 -53 -28 -28 -60 -60 -72 -72 -12
-13 -29 -23 -38 -23 -8 0 -25 -7 -37 -15 -43 -30 -143 -45 -309 -45 -123 0
-164 3 -173 13 -8 10 -9 98 -5 303 2 159 6 298 8 309 3 18 12 20 112 25 60 3
120 2 134 -1 14 -3 50 -7 80 -8z m900 0 c0 -5 9 -7 20 -4 43 11 205 -43 217
-72 3 -8 9 -12 14 -9 5 3 36 -21 69 -53 48 -47 61 -68 73 -113 23 -90 15 -151
-29 -217 -42 -63 -91 -112 -114 -113 -8 0 -26 -9 -40 -20 -14 -11 -35 -20 -47
-20 -12 0 -25 -4 -28 -10 -3 -5 -19 -10 -35 -10 -16 0 -31 -4 -34 -8 -8 -13
-167 -5 -230 12 -75 20 -175 76 -210 118 -56 67 -71 107 -70 193 0 70 3 87 27
128 15 26 32 47 37 47 6 0 10 6 10 13 0 16 136 107 160 107 11 0 21 4 25 9 3
6 13 10 23 10 14 0 127 15 155 20 4 0 7 -3 7 -8z m576 -26 c33 -29 55 -45 62
-45 4 0 20 -16 37 -35 16 -19 33 -35 36 -35 3 0 30 -22 59 -50 29 -27 57 -50
61 -50 5 0 9 -7 9 -15 0 -8 3 -15 8 -15 4 0 27 -18 52 -40 25 -22 51 -40 57
-40 7 0 15 -11 19 -24 4 -17 11 -23 22 -19 12 5 14 2 9 -11 -5 -14 -3 -17 8
-12 8 3 15 1 15 -4 0 -6 7 -10 15 -10 8 0 15 -6 15 -13 0 -8 11 -19 24 -27 13
-7 27 -21 29 -31 7 -27 37 -24 37 4 1 12 2 57 3 100 1 44 -1 81 -6 84 -4 2 -5
9 -1 14 3 5 6 69 6 142 1 131 1 132 24 133 l24 2 -5 -312 c-3 -171 -6 -316 -7
-322 -2 -12 -14 -15 -80 -15 -39 0 -53 5 -76 28 -16 15 -53 48 -83 73 -54 45
-70 60 -168 150 -29 28 -55 50 -57 50 -2 0 -18 14 -36 30 -17 17 -35 30 -39
30 -5 0 -9 7 -9 15 0 8 -5 15 -10 15 -6 0 -24 14 -41 31 -37 38 -52 29 -54
-33 0 -24 -4 -49 -8 -55 -5 -7 -4 -13 2 -13 13 0 9 -252 -4 -262 -6 -5 -4 -12
5 -18 20 -13 -1 -34 -26 -26 -17 5 -19 16 -17 103 1 54 3 195 4 313 1 132 5
217 11 221 15 10 61 6 74 -6z m1195 -8 c16 3 29 2 29 -3 0 -5 14 -10 32 -10
18 -1 34 -6 36 -13 2 -6 8 -9 13 -5 16 10 51 -7 45 -22 -3 -9 0 -14 7 -13 6 1
25 -3 41 -10 l29 -12 -21 -15 c-20 -14 -24 -14 -38 0 -8 9 -23 16 -33 16 -9 0
-22 5 -27 10 -14 14 -120 42 -167 44 -20 1 -37 5 -37 9 0 4 0 11 0 16 0 12 42
19 54 10 5 -5 22 -5 37 -2z m-101 -8 c0 -10 -58 -35 -73 -31 -5 1 -21 -7 -37
-18 -30 -21 -45 -26 -36 -11 4 5 -5 4 -19 -2 -27 -13 -34 -27 -35 -72 -1 -33
-1 -142 -1 -165 1 -69 1 -115 -2 -172 -3 -62 -2 -67 20 -77 13 -6 26 -18 30
-27 5 -13 7 -13 14 -2 8 11 11 11 18 -1 5 -7 20 -13 35 -13 14 0 24 -4 21 -7
-2 -4 25 -7 61 -6 35 1 64 -2 64 -6 0 -4 12 -3 28 1 15 5 47 14 72 21 25 6 52
14 60 17 8 3 20 6 27 7 7 0 19 9 27 20 12 16 16 17 30 6 18 -15 21 -31 6 -31
-6 0 -27 -11 -48 -23 -20 -13 -43 -22 -50 -19 -7 2 -19 -2 -27 -8 -8 -7 -21
-10 -29 -7 -8 3 -20 0 -26 -8 -6 -7 -20 -11 -30 -8 -22 6 -53 -14 -44 -28 3
-5 10 -7 15 -4 5 4 9 0 9 -8 0 -11 -11 -15 -41 -14 -36 2 -40 4 -36 25 5 26 0
29 -61 36 -23 3 -48 8 -54 12 -7 4 -24 9 -37 10 -14 2 -27 8 -29 14 -2 5 -10
10 -18 10 -8 0 -14 5 -14 11 0 5 -5 7 -10 4 -6 -3 -13 1 -16 9 -3 9 -14 16
-25 16 -10 0 -25 10 -33 22 -9 12 -16 18 -16 13 0 -6 -14 10 -30 35 -16 25
-30 50 -30 57 0 6 -4 13 -9 15 -9 3 -16 74 -13 139 1 24 15 55 37 88 19 28 35
56 35 62 0 6 7 9 15 5 8 -3 15 -2 15 2 0 11 90 78 101 75 5 -2 24 6 44 17 20
11 35 15 35 9 0 -8 4 -8 13 -1 10 9 33 14 85 21 6 0 12 -4 12 -10z m935 -39
c19 -26 35 -57 35 -69 0 -12 5 -18 13 -16 7 3 18 -9 26 -27 8 -18 20 -38 25
-45 30 -34 36 -43 36 -53 0 -5 5 -10 10 -10 6 0 10 -5 10 -10 0 -9 47 -87 60
-100 3 -3 14 -22 25 -43 11 -21 27 -46 36 -55 8 -9 28 -42 45 -72 16 -30 35
-60 43 -66 18 -14 5 -58 -16 -50 -8 3 -44 6 -79 6 -35 0 -64 4 -64 10 0 8 -36
68 -58 95 -4 6 -18 26 -30 46 -22 36 -23 37 -87 35 -49 -1 -68 3 -75 14 -8 13
-10 12 -10 -2 0 -10 -4 -18 -10 -18 -5 0 -10 5 -10 11 0 8 -4 8 -12 1 -8 -6
-29 -7 -53 -3 -22 4 -51 5 -65 4 -40 -5 -43 -5 -82 1 -34 4 -40 2 -59 -27 -12
-18 -32 -43 -45 -57 -12 -14 -31 -41 -41 -60 -18 -33 -63 -55 -63 -31 0 20 42
81 53 74 6 -3 7 -1 3 5 -3 6 3 26 14 44 11 18 20 44 20 57 0 18 4 22 20 18 11
-3 20 0 20 6 0 7 11 24 24 40 13 15 29 41 36 57 7 17 18 30 25 30 7 0 16 11
19 24 3 13 26 48 49 78 24 29 47 62 50 73 4 11 19 34 33 50 15 17 31 42 36 56
15 44 52 35 93 -21z m-415 -395 c0 -7 -3 -15 -6 -18 -9 -8 -46 12 -40 21 7 12
46 9 46 -3z m-393 -289 c-8 -11 -24 -27 -37 -35 -23 -15 -24 -15 -17 3 6 14 5
16 -5 8 -15 -12 -88 -12 -88 0 0 4 15 8 34 8 48 0 66 9 77 37 8 20 11 22 29
11 17 -11 18 -15 7 -32z m-10117 -439 c17 -37 35 -69 40 -72 6 -3 10 -14 10
-24 0 -9 9 -27 20 -39 24 -25 25 -38 5 -46 -10 -4 -22 5 -35 27 -11 17 -20 35
-20 38 0 4 -13 12 -30 19 -35 14 -39 30 -10 37 20 5 20 6 -5 39 -14 19 -23 39
-20 44 10 16 0 11 -31 -15 -16 -14 -25 -25 -20 -25 5 0 3 -7 -4 -15 -10 -13
-10 -19 4 -33 20 -23 21 -36 2 -29 -16 6 -66 -32 -66 -50 0 -17 -28 -36 -45
-30 -11 5 -6 22 28 89 56 108 80 148 90 148 4 0 7 6 7 14 0 22 23 25 37 5 7
-9 26 -46 43 -82z m380 80 c-13 -11 -17 -45 -12 -101 2 -16 8 -18 50 -12 75
10 90 54 34 104 l-25 22 30 0 c35 0 50 -14 63 -60 10 -35 -3 -75 -21 -65 -5 4
-9 1 -9 -4 0 -6 -11 -11 -25 -11 -17 0 -25 -5 -25 -17 1 -21 54 -83 71 -83 6
0 9 -7 5 -15 -3 -8 -1 -15 4 -15 6 0 10 -4 10 -10 0 -22 -29 -8 -71 35 -55 56
-65 67 -71 85 -9 25 -30 -41 -26 -82 2 -26 -1 -39 -11 -43 -30 -12 -44 32 -30
87 4 15 3 30 -2 33 -5 4 -5 13 0 24 5 9 6 23 2 30 -5 7 -5 28 -1 47 4 18 5 35
3 38 -12 11 11 26 40 26 27 -1 30 -3 17 -13z m656 -2 c78 -23 114 -73 116
-165 1 -23 -7 -38 -31 -58 l-33 -27 21 -26 c11 -15 17 -29 14 -33 -12 -12 -41
-6 -47 9 -4 13 -21 15 -92 12 -81 -4 -132 7 -154 32 -3 3 -14 11 -25 17 -11 6
-27 33 -37 60 -14 44 -15 53 -2 84 38 91 150 131 270 95z m409 -101 c2 -134 7
-149 60 -164 25 -7 57 -10 72 -6 15 4 37 8 48 10 30 5 31 6 19 14 -8 5 -8 15
-2 32 5 14 10 65 9 113 0 69 3 89 15 94 8 3 17 3 20 0 3 -3 5 -47 4 -99 -1
-51 -1 -103 -1 -115 0 -14 -11 -30 -32 -44 -17 -13 -34 -26 -37 -29 -7 -8
-107 -5 -148 4 -51 12 -69 59 -66 173 2 95 8 117 27 110 8 -2 12 -35 12 -93z
m550 69 c8 -20 8 -213 0 -221 -3 -3 0 -11 5 -17 7 -9 5 -16 -6 -26 -13 -11
-17 -10 -25 2 -9 14 -11 257 -2 271 7 13 21 9 28 -9z m455 0 c0 -8 -13 -13
-34 -13 l-34 0 -2 -57 c-2 -59 -1 -96 1 -110 1 -4 1 -29 0 -55 -1 -41 -3 -46
-21 -41 -23 6 -23 8 -21 118 2 93 -7 158 -20 149 -13 -7 -69 5 -69 16 0 4 45
8 100 7 72 -2 100 -5 100 -14z m433 1 c15 3 27 2 27 -3 0 -12 -90 -20 -116
-11 -29 12 -34 5 -34 -51 0 -34 4 -49 17 -53 14 -6 14 -8 1 -19 -9 -7 -18 -34
-20 -64 -5 -56 1 -63 64 -63 30 0 49 -19 21 -21 -92 -5 -113 -3 -117 11 -7 22
-9 83 -7 183 1 80 3 87 21 87 11 0 20 4 20 9 0 5 21 4 48 -1 26 -5 59 -7 75
-4z m390 -5 c80 0 107 -5 107 -19 0 -4 -20 -6 -44 -4 -29 3 -47 0 -52 -8 -5
-7 -9 -60 -9 -118 -2 -138 -2 -140 -20 -140 -17 0 -18 5 -16 120 2 118 -6 142
-49 147 -39 4 -45 8 -35 23 4 6 14 9 23 5 9 -3 51 -6 95 -6z m376 -23 c9 -10
11 -43 8 -103 -4 -84 1 -110 28 -138 16 -16 105 -23 143 -10 28 8 32 28 36
155 2 80 6 105 16 105 20 0 29 -47 26 -141 -3 -82 -4 -85 -36 -112 -18 -15
-42 -28 -54 -29 -11 -1 -37 -4 -56 -6 -53 -6 -119 20 -131 52 -6 14 -11 64
-13 111 -3 123 5 150 33 116z m643 2 c67 -15 88 -32 88 -74 0 -42 -27 -63 -72
-56 -31 5 -32 6 -8 12 14 3 27 3 28 -2 8 -20 19 4 16 34 -5 41 -38 67 -85 68
-40 0 -46 -8 -45 -55 1 -16 -3 -33 -9 -37 -6 -5 -1 -8 10 -9 48 -4 75 -17 69
-32 -2 -7 7 -23 21 -37 62 -60 94 -95 90 -98 -2 -2 -16 -1 -32 2 -27 6 -71 57
-65 77 1 5 -4 9 -11 9 -7 0 -23 9 -36 21 -12 12 -24 19 -27 16 -7 -7 -15 -49
-15 -85 -1 -54 -24 -31 -25 24 0 27 -3 55 -7 61 -4 6 -4 14 1 17 9 5 7 70 -3
86 -3 6 -1 10 6 10 9 0 9 3 -1 15 -9 11 -9 17 2 29 16 19 40 20 110 4z m504
-61 c13 -29 29 -59 34 -67 5 -8 16 -31 26 -50 9 -19 26 -52 37 -73 11 -21 17
-40 15 -43 -10 -10 -38 9 -38 26 0 10 -7 20 -15 24 -8 3 -15 12 -15 21 0 8 -8
15 -18 15 -10 0 -27 7 -38 16 -18 15 -18 15 8 11 25 -4 26 -2 15 22 -21 49
-49 82 -64 77 -8 -4 -18 -4 -23 -1 -9 6 11 55 23 55 4 0 7 7 7 16 0 26 20 5
46 -49z m606 51 c1 -7 2 -79 2 -160 1 -110 -2 -148 -11 -148 -7 0 -10 7 -7 15
4 8 2 15 -3 15 -6 0 -7 19 -3 48 4 26 7 91 6 145 -1 53 2 97 6 97 5 0 9 -6 10
-12z m-5956 -43 c11 -76 7 -91 -28 -106 -44 -18 -69 -14 -94 15 -30 34 -25 83
11 112 25 20 32 21 68 10 27 -8 41 -18 43 -31z m6506 30 c3 -3 2 -25 -2 -50
-4 -25 -3 -45 1 -45 8 0 1 -110 -7 -119 -2 -2 2 -11 9 -19 9 -12 9 -16 0 -19
-7 -2 -9 -11 -6 -19 3 -9 -1 -14 -11 -14 -23 0 -29 22 -18 63 7 25 6 39 -1 46
-9 9 -8 14 3 21 9 6 10 10 3 10 -14 0 -13 82 2 92 6 5 5 8 -2 8 -7 0 -13 7
-13 16 0 8 4 12 10 9 6 -3 7 1 4 9 -6 15 16 23 28 11z m328 -35 c16 -14 64
-58 106 -98 43 -41 89 -75 104 -78 26 -6 27 -4 25 29 -1 19 -5 39 -9 45 -3 6
-2 13 2 16 5 3 7 28 5 56 -3 45 -2 50 17 50 11 0 20 -4 20 -10 0 -5 -5 -10
-11 -10 -6 0 -7 -5 -2 -12 12 -20 11 -128 -1 -128 -8 0 -8 -2 0 -8 6 -4 9 -26
6 -49 -3 -32 -8 -43 -21 -43 -17 1 -62 30 -45 30 5 0 -2 8 -17 18 -14 9 -34
25 -45 35 -48 45 -89 77 -96 77 -5 0 -8 6 -8 13 0 7 -9 13 -20 14 -20 2 -25
-14 -22 -59 1 -10 -2 -18 -7 -18 -5 0 -5 -13 1 -28 12 -31 3 -102 -13 -102
-14 0 -26 39 -22 74 1 17 3 49 3 71 1 22 7 43 13 47 9 6 9 8 0 8 -7 0 -13 10
-13 23 0 26 11 69 16 65 2 -2 17 -14 34 -28z m750 20 c0 -4 -20 -10 -45 -13
-55 -6 -58 -8 -58 -47 0 -20 -5 -30 -16 -30 -13 0 -13 -2 1 -12 13 -10 16 -30
15 -98 -2 -61 -6 -85 -14 -84 -35 3 -38 4 -23 14 13 9 13 11 0 20 -11 7 -11
10 -2 10 8 0 10 5 6 12 -10 15 -12 58 -3 58 6 0 2 106 -6 127 -2 7 3 10 13 7
13 -5 13 -2 -3 11 -11 9 -33 15 -50 14 -49 -2 -63 1 -40 10 25 10 225 11 225
1z m428 -15 c4 -4 -22 -5 -58 -4 -76 4 -90 -2 -90 -41 0 -16 -6 -32 -12 -36
-19 -12 26 -22 99 -23 34 -1 64 -5 67 -9 3 -5 -11 -8 -30 -7 -20 0 -37 -2 -40
-6 -2 -4 -20 -5 -39 -2 -19 3 -35 2 -35 -3 -1 -5 -5 -28 -9 -51 -5 -24 -4 -43
0 -43 5 0 9 -7 9 -15 0 -12 14 -15 63 -16 34 -1 66 -1 70 0 5 1 7 -4 5 -11 -3
-8 -17 -12 -34 -11 -16 2 -58 3 -93 3 -50 0 -62 3 -58 14 3 7 0 19 -6 25 -8 8
-8 11 1 11 9 0 10 5 3 19 -6 10 -8 21 -5 23 3 3 5 49 5 101 l0 96 52 3 c56 3
123 -5 135 -17z m412 -5 c3 -4 16 -10 29 -11 19 -3 27 -13 34 -38 7 -28 5 -37
-15 -58 -17 -18 -30 -23 -50 -19 -20 4 -30 1 -38 -13 -8 -15 -6 -20 11 -24 11
-3 23 -14 26 -25 3 -11 13 -22 24 -25 10 -3 19 -12 19 -19 0 -8 12 -21 28 -28
l27 -14 -25 -4 c-13 -2 -26 1 -28 7 -2 6 -10 11 -18 11 -8 0 -14 7 -14 15 0 8
-5 15 -11 15 -5 0 -8 4 -5 8 7 12 -6 26 -36 39 -16 7 -28 20 -28 29 0 8 -6 14
-12 12 -8 -3 -14 -27 -16 -59 -3 -57 -12 -75 -35 -66 -10 4 -13 20 -10 63 2
32 5 60 8 62 3 3 0 11 -6 18 -7 8 -7 14 0 18 7 4 7 15 1 30 -5 15 -5 37 3 61
l11 37 60 -7 c34 -4 63 -11 66 -15z m865 4 c11 1 22 -2 25 -5 3 -3 25 -12 50
-20 25 -8 44 -18 44 -24 -1 -5 7 -16 18 -24 11 -7 17 -19 13 -28 -3 -9 -1 -21
4 -27 16 -19 -4 -82 -35 -112 -51 -47 -75 -58 -130 -59 -43 -1 -51 1 -43 12 7
7 21 13 33 13 38 0 99 27 117 51 9 13 18 47 20 76 3 44 1 53 -14 57 -10 2 -21
14 -24 25 -3 12 -14 21 -24 21 -11 0 -22 6 -24 13 -7 16 -109 15 -129 -2 -11
-9 -15 -9 -18 0 -6 18 -60 -37 -73 -75 -18 -53 -6 -106 27 -121 27 -13 33 -31
13 -39 -17 -6 -65 30 -65 50 0 7 -4 14 -10 16 -12 4 -20 77 -8 84 4 3 6 9 3
14 -8 13 73 89 102 95 16 4 35 10 43 14 8 5 26 5 40 2 14 -4 34 -7 45 -7z
m-510 -3 c5 -9 7 -141 2 -189 -1 -12 -9 -27 -17 -32 -12 -8 -11 -10 7 -10 18
0 20 -4 14 -27 -4 -16 -10 -27 -14 -25 -4 1 -11 2 -15 2 -11 0 -10 201 1 218
5 7 4 12 -2 12 -7 0 -8 33 -2 58 2 6 20 1 26 -7z m1068 -10 c5 -1 5 -5 2 -11
-3 -5 -25 -7 -50 -3 -42 5 -44 4 -50 -23 -4 -16 -9 -36 -11 -45 -6 -22 21 -42
54 -42 24 0 28 -4 27 -30 0 -40 -18 -44 -43 -12 -20 25 -21 25 -27 4 -4 -11
-8 -37 -9 -58 -2 -37 -11 -61 -24 -61 -10 0 -9 152 1 167 4 6 4 14 -1 17 -15
9 -3 78 15 92 16 12 40 13 116 5z m477 0 c0 -5 10 -7 23 -4 17 5 19 3 11 -7
-15 -15 -82 -19 -88 -5 -2 6 -8 6 -16 -2 -7 -6 -18 -9 -24 -7 -6 2 -12 -7 -12
-21 -1 -14 -5 -36 -8 -50 -5 -21 -3 -24 21 -24 59 2 94 -4 90 -15 -4 -11 -21
-12 -69 -2 -30 6 -39 -9 -40 -66 0 -18 -5 -41 -10 -50 -6 -13 -5 -16 6 -12 8
3 17 0 21 -5 3 -6 11 -9 16 -6 5 4 9 1 9 -5 0 -16 -22 -21 -55 -12 -27 8 -30
12 -27 43 6 71 7 199 1 199 -3 0 -4 11 -2 24 5 22 10 24 65 24 32 0 62 3 65 6
9 9 23 7 23 -3z m-415 -51 c-4 -6 -1 -10 6 -10 9 0 9 -4 -1 -15 -6 -8 -9 -19
-5 -25 3 -5 1 -10 -5 -10 -6 0 -9 -4 -6 -8 2 -4 -11 -12 -30 -18 -28 -9 -34
-8 -34 3 0 8 9 17 20 20 22 6 22 6 24 46 1 16 -3 27 -11 27 -16 0 -17 12 -2
27 13 13 54 -22 44 -37z m756 0 c-14 -27 -29 -50 -33 -50 -17 0 -7 55 14 77
38 40 48 27 19 -27z m127 31 c12 -6 22 -16 22 -21 0 -14 -26 -12 -42 3 -7 6
-19 12 -25 13 -37 3 -43 5 -43 13 0 13 60 7 88 -8z m-7334 -10 c10 -16 -18
-18 -59 -5 l-40 12 47 1 c26 1 49 -3 52 -8z m1823 -8 c3 -7 -3 -9 -16 -6 -12
3 -21 10 -21 15 0 13 32 6 37 -9z m-4782 -3 c3 -5 1 -10 -4 -10 -6 0 -11 5
-11 10 0 6 2 10 4 10 3 0 8 -4 11 -10z m4760 -21 c4 -5 0 -18 -9 -28 -20 -22
-21 -38 -2 -22 10 8 16 9 21 1 3 -5 16 -10 27 -10 35 0 12 -12 -28 -14 -22 -2
-40 -10 -46 -20 -5 -9 -14 -13 -20 -10 -7 4 -8 2 -4 -4 8 -13 -30 -59 -40 -50
-8 8 31 92 50 107 9 8 14 17 11 21 -3 4 2 11 11 14 8 3 12 10 9 16 -3 5 -2 10
4 10 5 0 13 -5 16 -11z m5441 -58 c6 -8 18 -11 27 -8 9 3 19 2 22 -3 3 -5 21
-17 40 -26 22 -10 32 -21 28 -30 -3 -8 0 -14 6 -14 19 0 12 -53 -11 -77 -23
-24 -71 -31 -98 -13 -11 7 -6 10 21 10 31 0 39 5 52 31 16 35 12 69 -9 69 -8
0 -14 4 -14 9 0 5 -8 7 -19 4 -10 -2 -25 3 -34 11 -8 9 -22 16 -29 16 -26 0
-40 17 -33 39 6 19 9 20 23 9 10 -7 22 -19 28 -27z m-326 -6 c0 -2 -9 -9 -20
-15 -16 -9 -20 -8 -20 5 0 8 9 15 20 15 11 0 20 -2 20 -5z m865 -18 c7 -7 15
-23 19 -35 9 -28 -22 -95 -40 -88 -7 3 -16 1 -18 -3 -8 -13 -52 -1 -75 20 -27
26 -27 64 2 99 19 24 28 28 60 24 22 -2 45 -10 52 -17z m-7785 -37 c0 -5 -4
-10 -9 -10 -6 0 -13 5 -16 10 -3 6 1 10 9 10 9 0 16 -4 16 -10z m6386 -16 c-5
-12 -1 -14 15 -9 17 6 20 3 17 -11 -4 -23 -38 -32 -38 -10 0 9 -4 16 -10 16
-5 0 -7 7 -4 15 4 8 11 15 16 15 6 0 7 -7 4 -16z m54 -44 c0 -5 7 -10 15 -10
9 0 12 -6 9 -15 -5 -11 -2 -13 12 -8 12 4 15 3 10 -5 -4 -7 -13 -12 -20 -12
-22 0 -60 36 -52 48 9 15 26 16 26 2z m773 -23 c10 -10 16 -21 14 -24 -10 -10
-47 9 -58 28 -9 17 -7 20 7 17 10 -2 27 -11 37 -21z m-1478 3 c4 -6 11 -8 16
-5 5 4 9 2 9 -4 0 -5 -6 -11 -12 -14 -18 -6 -50 12 -43 24 8 12 22 12 30 -1z
m-3232 -43 c-3 -15 -11 -26 -17 -24 -10 4 -11 26 0 56 8 25 23 -2 17 -32z
m4387 30 c11 3 20 0 20 -6 0 -11 -20 -15 -50 -11 -23 3 -26 10 -10 20 8 5 16
5 18 1 2 -5 12 -7 22 -4z"/>
<path d="M1719 2188 c-16 -18 -29 -37 -29 -43 0 -6 -13 -27 -30 -45 -16 -18
-30 -40 -30 -47 0 -7 -4 -13 -10 -13 -5 0 -10 -5 -10 -12 0 -6 -7 -19 -15 -28
-9 -10 -13 -23 -10 -31 4 -11 34 -14 143 -13 171 0 182 1 182 15 0 11 -43 88
-80 144 -8 12 -26 41 -39 64 -14 22 -29 41 -33 41 -5 0 -22 -15 -39 -32z"/>
<path d="M2548 2332 c-36 -4 -37 -8 -42 -237 -3 -104 -6 -197 -7 -205 -1 -8
-1 -41 -1 -72 l2 -57 103 3 c56 2 116 9 132 16 17 7 44 19 62 27 17 7 57 36
87 64 66 60 91 121 81 196 -8 53 -50 139 -72 147 -8 3 -11 10 -8 16 3 5 2 10
-4 10 -5 0 -23 12 -40 26 -17 14 -35 23 -41 19 -5 -3 -10 -2 -10 3 0 17 -67
38 -135 41 -38 2 -72 4 -75 5 -3 1 -17 0 -32 -2z"/>
<path d="M4382 2153 c-146 -210 -155 -223 -147 -231 12 -12 345 -14 345 -2 0
6 -28 55 -61 108 -34 53 -69 109 -78 124 -20 35 -35 35 -59 1z"/>
<path d="M9923 2233 l-33 -4 0 -142 c-1 -78 -2 -206 -4 -284 -2 -95 1 -144 8
-146 6 -2 49 -2 96 0 47 2 93 4 104 4 10 0 28 7 40 15 13 8 26 11 30 7 4 -4
10 -3 14 2 9 13 42 34 65 41 9 4 17 10 17 15 0 5 9 9 21 9 11 0 18 4 15 8 -3
5 8 24 24 44 41 50 56 116 41 183 -7 29 -19 59 -27 65 -7 7 -14 16 -14 21 0
15 -52 69 -66 69 -7 0 -19 8 -26 18 -29 41 -218 87 -305 75z"/>
<path d="M10851 2221 c-7 -5 -21 -6 -31 -4 -10 3 -21 0 -24 -6 -4 -6 -14 -11
-23 -11 -8 0 -28 -9 -44 -21 -22 -15 -27 -24 -20 -33 6 -7 8 -16 5 -19 -8 -8
-11 -116 -3 -120 3 -1 3 -30 -1 -65 -3 -35 -2 -65 2 -68 4 -3 5 -10 3 -17 -3
-7 -7 -44 -9 -84 -3 -71 -3 -72 25 -84 16 -6 27 -15 24 -19 -3 -4 12 -8 32 -7
20 1 38 -3 40 -8 2 -6 45 -10 96 -10 83 1 141 12 189 36 10 5 25 9 33 9 8 0
15 5 15 10 0 6 6 10 13 10 13 0 112 90 99 90 -4 0 2 7 12 15 11 8 14 15 7 15
-7 0 -9 5 -5 11 25 40 18 147 -12 201 -20 37 -105 116 -131 123 -15 3 -30 10
-33 13 -11 15 -108 40 -160 41 -30 1 -62 4 -70 6 -8 3 -21 1 -29 -4z"/>
<path d="M12625 1600 c-3 -5 -1 -10 4 -10 6 0 11 5 11 10 0 6 -2 10 -4 10 -3
0 -8 -4 -11 -10z"/>
<path d="M13424 2068 c-5 -7 -18 -29 -28 -48 -11 -19 -22 -37 -25 -40 -10 -9
-51 -69 -51 -75 0 -3 -4 -11 -10 -18 -59 -73 -63 -78 -51 -90 13 -13 61 -17
61 -6 0 5 19 5 43 2 23 -3 51 -5 62 -3 40 4 51 3 108 -4 41 -5 57 -4 57 4 0 7
7 10 15 6 9 -3 15 0 15 9 0 8 -4 15 -10 15 -5 0 -10 7 -10 15 0 8 -4 15 -9 15
-5 0 -12 8 -15 18 -13 32 -31 62 -38 62 -5 0 -8 7 -8 15 0 9 -7 18 -15 21 -8
4 -15 14 -15 23 0 10 -9 27 -20 39 -11 12 -20 28 -20 37 0 18 -24 20 -36 3z"/>
<path d="M3571 1134 c-1 -6 -15 -14 -32 -18 -48 -9 -84 -41 -99 -86 -12 -36
-11 -45 3 -75 9 -19 21 -35 25 -35 5 0 19 -9 32 -20 13 -11 31 -20 41 -20 10
0 20 -4 23 -9 4 -5 20 -5 40 1 26 8 32 15 29 29 -3 11 -9 19 -14 19 -5 0 -9 7
-9 15 0 20 12 19 44 -6 l26 -20 28 20 c20 14 28 27 26 43 -1 13 -3 33 -3 46
-2 40 -78 102 -125 102 -13 0 -27 6 -29 13 -4 7 -6 8 -6 1z"/>
<path d="M10401 1000 c-3 -8 -5 -24 -5 -35 1 -11 2 -30 3 -42 1 -21 5 -22 50
-19 33 3 57 12 70 25 12 12 16 21 10 21 -6 0 -9 9 -6 20 3 13 0 20 -8 20 -7 0
-15 5 -17 11 -6 18 -89 17 -97 -1z"/>
</g>
</svg>
